<svg xmlns="http://www.w3.org/2000/svg" width="77" height="87" viewBox="0 0 77 87" >
    <polygon points="5.3,24.35 5.3,62.65 34.6,55.85" fill="#9119f6"/>
    <polygon points="5.3,24.35 38.5,5.25 46.7,28.95" fill="#40b2fc"/>
    <polygon points="34.6,55.85 5.3,24.35 46.7,28.95" fill="#e16bfc"/>
    <polygon points="71.6,24.35 71.6,62.65 58,49.45" fill="#40B2FC"/>
    <polygon points="38.5,81.75 71.6,62.65 58,49.45" fill="#e16bfc"/>
    <polygon points="58,49.45 38.5,81.75 34.6,55.85" fill="#e16bfc"/>
    <polygon points="46.7,28.95 34.6,55.85 58,49.45" fill="#e16bfc"/>
    <polygon points="5.3,62.65 34.6,55.85 38.5,81.75" fill="#9119f6"/>
    <polygon points="46.7,28.95 38.5,5.25 71.6,24.35" fill="#40b2fc"/>
    <polygon points="71.6,24.35 46.7,28.95 58,49.45" fill="#40b2fc"/>
    <path stroke-width="1" stroke="#000" fill="#AAA" d="m 73.08,58.11v -29.2c 1.9,-0.6 3.3,-2.4 3.3,-4.5 0,-2.7 -2.1,-4.8 -4.8,-4.8 -1.2,0 -2.3,0.5 -3.2,1.2l -25.2,-14.6c 0.1,-0.3 0.1,-0.6 0.1,-1 0,-2.7 -2.1,-4.8 -4.8,-4.8 -2.7,0 -4.8,2.1 -4.8,4.8 0,0.3 0,0.7 0.1,1L 8.48,20.81c -0.8,-0.8 -2,-1.2 -3.2,-1.2 -2.7,0 -4.8,2.1 -4.8,4.8 0,2.1 1.4,3.9 3.3,4.5v 29.2c -1.9,0.6 -3.3,2.4 -3.3,4.5 0,2.7 2.1,4.8 4.8,4.8 1.2,0 2.3,-0.5 3.2,-1.2l 25.3,14.5c -0.1,0.3 -0.1,0.6 -0.1,1 0,2.7 2.1,4.8 4.8,4.8 2.7,0 4.8,-2.1 4.8,-4.8 0,-0.3 0,-0.7 -0.1,-1l 25.3,-14.6c 0.8,0.8 2,1.2 3.2,1.2 2.7,0 4.8,-2.1 4.8,-4.8 -0.1,-2 -1.5,-3.8 -3.4,-4.4zm -3.7,0.3 -7.2,-6.9c 0.3,-0.6 0.5,-1.3 0.5,-2 0,-1.3 -0.5,-2.4 -1.3,-3.2l 8.7,-16v 27.8c -0.2,0 -0.5,0.1 -0.7,0.3zm -30.1,18.6 -2.5,-16.9c 1.5,-0.8 2.5,-2.3 2.6,-4l 14.5,-4c 0.1,0.2 0.3,0.3 0.4,0.5l -14.7,24.4c -0.1,0 -0.2,0 -0.3,0zm -29.6,-50.7 32.3,3.6c 0.2,1 0.7,1.9 1.5,2.5l -8.4,18.7c -0.2,0 -0.3,0 -0.5,0 -0.7,0 -1.4,0.2 -2,0.4l -23.1,-24.9c 0.1,-0.1 0.2,-0.2 0.2,-0.3zm 57.7,0.3c 0.2,0.4 0.4,0.7 0.7,1l -9.3,17.1c -0.3,-0.1 -0.6,-0.1 -0.9,-0.1 -0.3,0 -0.6,0 -0.8,0.1l -6.9,-12.6c 0.7,-0.7 1.1,-1.6 1.2,-2.6zm -28.8,26.6c -0.2,-0.3 -0.5,-0.6 -0.8,-0.9l 8.4,-18.7c 0.2,0 0.3,0 0.5,0 0.3,0 0.6,0 0.9,-0.1l 6.8,12.6c -0.8,0.8 -1.3,1.9 -1.3,3.1zm 28.3,-29.5 -16,2.9c -0.8,-1.5 -2.4,-2.5 -4.2,-2.5 0,0 -0.1,0 -0.1,0l -5.3,-15.1c 0.1,-0.1 0.2,-0.1 0.3,-0.2l 25.3,14.6c 0,0 0,0.2 0,0.3zm -28.4,-13.7c 0,0 0,0 0,0l 5.3,15.1c -0.6,0.5 -1.1,1.1 -1.5,1.8l -32.3,-3.6L 35.18,8.71c 1,0.8 2.1,1.3 3.3,1.3zm -31.2,18.7 23.1,24.8c -0.3,0.6 -0.5,1.2 -0.6,1.9l -20.4,4.7c -0.6,-1 -1.5,-1.7 -2.6,-2v -29.2c 0.2,-0.1 0.4,-0.2 0.5,-0.2zm 2.8,34.3 20.4,-4.7c 0.7,1.2 1.9,2 3.3,2.2l 2.5,16.9c -0.4,0.2 -0.7,0.4 -1,0.7l -25.3,-14.5c 0.1,-0.2 0.1,-0.4 0.1,-0.6zm 46.8,-8.9c 0.3,0.1 0.7,0.1 1,0.1 0.8,0 1.6,-0.2 2.3,-0.6l 7.1,6.9c -0.3,0.6 -0.5,1.3 -0.5,2.1 0,0.3 0,0.7 0.1,1l -24.1,13.9z"/>
</svg>